<svg xmlns="http://www.w3.org/2000/svg" viewBox="0 0 512 512">
  <defs>
    <linearGradient id="bg" x1="62" y1="32" x2="452" y2="480" gradientUnits="userSpaceOnUse">
      <stop offset="0%" stop-color="#172554" />
      <stop offset="46%" stop-color="#0F766E" />
      <stop offset="100%" stop-color="#A16207" />
    </linearGradient>
    <radialGradient id="warm-glow" cx="0" cy="0" r="1" gradientUnits="userSpaceOnUse" gradientTransform="translate(390 112) rotate(124) scale(242)">
      <stop offset="0%" stop-color="#FDE68A" stop-opacity="0.8" />
      <stop offset="100%" stop-color="#FDE68A" stop-opacity="0" />
    </radialGradient>
    <linearGradient id="paper" x1="130" y1="78" x2="388" y2="422" gradientUnits="userSpaceOnUse">
      <stop offset="0%" stop-color="#FFFFFF" />
      <stop offset="100%" stop-color="#FEF3C7" />
    </linearGradient>
    <linearGradient id="spine" x1="112" y1="92" x2="184" y2="420" gradientUnits="userSpaceOnUse">
      <stop offset="0%" stop-color="#2DD4BF" />
      <stop offset="100%" stop-color="#0F766E" />
    </linearGradient>
    <linearGradient id="fold" x1="312" y1="82" x2="390" y2="164" gradientUnits="userSpaceOnUse">
      <stop offset="0%" stop-color="#CCFBF1" />
      <stop offset="100%" stop-color="#FDE68A" />
    </linearGradient>
    <radialGradient id="mind-glow" cx="0" cy="0" r="1" gradientUnits="userSpaceOnUse" gradientTransform="translate(260 236) scale(96)">
      <stop offset="0%" stop-color="#FDE68A" stop-opacity="0.9" />
      <stop offset="54%" stop-color="#CCFBF1" stop-opacity="0.72" />
      <stop offset="100%" stop-color="#CCFBF1" stop-opacity="0" />
    </radialGradient>
    <filter id="soft-shadow" x="-20%" y="-20%" width="140%" height="140%">
      <feDropShadow dx="0" dy="16" stdDeviation="18" flood-color="#0B1120" flood-opacity="0.32" />
    </filter>
  </defs>
  <rect width="512" height="512" rx="112" fill="url(#bg)" />
  <rect width="512" height="512" rx="112" fill="url(#warm-glow)" />
  <path d="M 44 404 C 142 318 268 320 466 394 L 466 512 H 44 Z" fill="#FDBA74" fill-opacity="0.18" />
  <circle cx="104" cy="116" r="54" fill="#A7F3D0" fill-opacity="0.18" />
  <g filter="url(#soft-shadow)" transform="rotate(-3 248 254)">
    <path d="M 126 82 H 318 L 392 156 V 398 C 392 421 373 440 350 440 H 126 C 103 440 84 421 84 398 V 124 C 84 101 103 82 126 82 Z" fill="url(#paper)" />
    <path d="M 126 82 H 174 V 440 H 126 C 103 440 84 421 84 398 V 124 C 84 101 103 82 126 82 Z" fill="url(#spine)" />
    <path d="M 318 82 V 137 C 318 148 327 156 338 156 H 392 Z" fill="url(#fold)" />
    <path d="M 318 82 V 137 C 318 148 327 156 338 156 H 392" fill="none" stroke="#0F766E" stroke-opacity="0.18" stroke-width="4" stroke-linejoin="round" />
    <circle cx="132" cy="156" r="8" fill="#ECFEFF" fill-opacity="0.88" />
    <circle cx="132" cy="218" r="8" fill="#ECFEFF" fill-opacity="0.88" />
    <circle cx="132" cy="280" r="8" fill="#ECFEFF" fill-opacity="0.88" />
    <circle cx="132" cy="342" r="8" fill="#ECFEFF" fill-opacity="0.88" />
    <rect x="198" y="330" width="120" height="14" rx="7" fill="#0F766E" fill-opacity="0.32" />
    <rect x="198" y="366" width="92" height="14" rx="7" fill="#0F766E" fill-opacity="0.24" />
    <circle cx="260" cy="228" r="82" fill="url(#mind-glow)" />
    <path d="M 219 237 L 249 206 L 291 218 L 306 258 L 270 288 L 229 276 Z" fill="none" stroke="#0F766E" stroke-width="9" stroke-linecap="round" stroke-linejoin="round" />
    <path d="M 249 206 L 270 288 M 219 237 L 306 258 M 291 218 L 229 276" fill="none" stroke="#14B8A6" stroke-width="6" stroke-linecap="round" stroke-opacity="0.85" />
    <circle cx="249" cy="206" r="14" fill="#FACC15" />
    <circle cx="291" cy="218" r="12" fill="#2DD4BF" />
    <circle cx="306" cy="258" r="12" fill="#F59E0B" />
    <circle cx="270" cy="288" r="13" fill="#2DD4BF" />
    <circle cx="229" cy="276" r="11" fill="#FACC15" />
    <circle cx="219" cy="237" r="12" fill="#2DD4BF" />
    <path d="M 263 154 L 274 182 L 302 193 L 274 204 L 263 232 L 252 204 L 224 193 L 252 182 Z" fill="#FACC15" />
  </g>
</svg>
